<svg xmlns="http://www.w3.org/2000/svg" viewBox="0 0 720 640"><rect width="720" height="640" fill="#ff7657"/><path d="M84 504V235l201-119 170 91 180-77v374" fill="none" stroke="#172c48" stroke-width="3"/><path d="M84 235l198 91 173-119 180 84M282 326v178M455 207v297" fill="none" stroke="#f7f1e7" stroke-width="2"/><g fill="#172c48"><rect x="112" y="337" width="116" height="167"/><rect x="320" y="371" width="95" height="133"/><rect x="493" y="312" width="105" height="192"/></g><g fill="none" stroke="#f7f1e7" stroke-width="2"><path d="M129 371h82M129 399h82M129 427h82M129 455h82"/><path d="M335 402h65M335 430h65M335 458h65"/><circle cx="545" cy="368" r="31"/><path d="M512 425h66M512 452h66"/></g><text x="82" y="570" fill="#172c48" font-family="Arial" font-weight="700" font-size="20" letter-spacing="5">BUILDING TRUST</text><text x="83" y="596" fill="#172c48" font-family="Arial" font-size="12" letter-spacing="2">MATERIALS / SERVICE / GROWTH</text></svg>
