<svg xmlns="http://www.w3.org/2000/svg" viewBox="0 0 760 310"><rect width="760" height="310" fill="#172c48"/><g fill="none" stroke="#ff7657" stroke-width="3"><circle cx="145" cy="110" r="41"/><circle cx="380" cy="110" r="41"/><circle cx="615" cy="110" r="41"/><path d="M75 250c8-59 33-88 70-88s62 29 70 88M310 250c8-59 33-88 70-88s62 29 70 88M545 250c8-59 33-88 70-88s62 29 70 88"/></g><g stroke="#f7f1e7" fill="none" stroke-width="2"><path d="M109 103h72M126 78l19-17 19 17M344 99h72M353 78h54v54h-54zM581 111l34-34 34 34v41h-68z"/></g><g fill="#f7f1e7" font-family="Arial" font-size="12" font-weight="700" text-anchor="middle" letter-spacing="2"><text x="145" y="284">CONTRACTOR</text><text x="380" y="284">RETAILER</text><text x="615" y="284">DEVELOPER</text></g></svg>
