<svg xmlns="http://www.w3.org/2000/svg" viewBox="0 0 760 360"><rect width="760" height="360" rx="2" fill="#f7f1e7"/><path d="M50 292h660M50 48v244" stroke="#172c48" stroke-width="2"/><g stroke="#172c48" stroke-width="1" opacity=".2"><path d="M50 230h660M50 168h660M50 106h660"/></g><path d="M70 112C150 128 176 236 270 233s108-96 192-78 97 75 225-68" fill="none" stroke="#ff7657" stroke-width="7"/><path d="M70 260c88-7 130-31 198-22s125-35 198-45 128-4 221-56" fill="none" stroke="#2478ff" stroke-width="3" stroke-dasharray="8 9"/><g fill="#172c48"><circle cx="270" cy="233" r="8"/><circle cx="462" cy="155" r="8"/><circle cx="687" cy="87" r="8"/></g><g font-family="Arial" font-size="12" fill="#172c48" font-weight="700"><text x="236" y="265">2567 · PRESSURE</text><text x="425" y="137">2568 · RECOVERY</text><text x="608" y="69">2569 · MOMENTUM</text></g></svg>
